<?xml version="1.0" encoding="UTF-8"?>
<svg width="32px" height="43px" viewBox="0 0 32 43" version="1.1" xmlns="http://www.w3.org/2000/svg" xmlns:xlink="http://www.w3.org/1999/xlink">
    <title>PIN/DEFAULT</title>
    <defs>
        <ellipse id="path-1" cx="11" cy="33.3333333" rx="4.33333333" ry="1.33333333"></ellipse>
        <filter x="-69.2%" y="-225.0%" width="238.5%" height="550.0%" filterUnits="objectBoundingBox" id="filter-2">
            <feOffset dx="0" dy="0" in="SourceAlpha" result="shadowOffsetOuter1"></feOffset>
            <feGaussianBlur stdDeviation="2" in="shadowOffsetOuter1" result="shadowBlurOuter1"></feGaussianBlur>
            <feColorMatrix values="0 0 0 0 0   0 0 0 0 0   0 0 0 0 0  0 0 0 0.5 0" type="matrix" in="shadowBlurOuter1"></feColorMatrix>
        </filter>
        <path d="M11.2658078,32.9731082 L20.9978903,12.6263915 C21.2200292,12.1821138 21.0819429,11.6537836 20.7757515,11.2995622 L11.4879466,1.56747967 C11.1757515,1.25528455 10.605395,1.25528455 10.3832562,1.56747967 L0.999391264,11.2995622 C0.687196142,11.6117573 0.55511359,12.1821138 0.777252427,12.6263915 L10.6414175,32.9731082 C10.8215301,33.4173859 11.0436689,33.4173859 11.2658078,32.9731082 Z" id="path-3"></path>
        <filter x="-48.9%" y="-25.0%" width="197.8%" height="162.6%" filterUnits="objectBoundingBox" id="filter-4">
            <feOffset dx="0" dy="2" in="SourceAlpha" result="shadowOffsetOuter1"></feOffset>
            <feGaussianBlur stdDeviation="3" in="shadowOffsetOuter1" result="shadowBlurOuter1"></feGaussianBlur>
            <feColorMatrix values="0 0 0 0 0.298039216   0 0 0 0 0.298039216   0 0 0 0 0.298039216  0 0 0 0.502431163 0" type="matrix" in="shadowBlurOuter1"></feColorMatrix>
        </filter>
    </defs>
    <g id="Desktop" stroke="none" stroke-width="1" fill="none" fill-rule="evenodd">
        <g id="PIN/DEFAULT" transform="translate(5.000000, 2.000000)">
            <g id="Oval" fill="black" fill-opacity="1">
                <use filter="url(#filter-2)" xlink:href="#path-1"></use>
            </g>
            <g id="PIN">
                <use fill="black" fill-opacity="1" filter="url(#filter-4)" xlink:href="#path-3"></use>
                <use fill="#427B01" fill-rule="evenodd" xlink:href="#path-3"></use>
            </g>
            <path d="M9.37733333,0.688666667 L0.0395671708,10.374081 L-0.0351225472,10.4539053 C-0.686477131,11.1848463 -0.870014355,12.3132819 -0.415317161,13.2226763 L9.43266667,33.5366667 L9.40576517,33.4740483 C10.0293778,35.0122928 11.7369274,35.0122928 12.4583774,33.569393 L22.2007119,13.2017157 C22.6579591,12.287678 22.445209,11.1920149 21.7844643,10.427624 L12.4525152,0.646944418 C11.6304545,-0.175595083 10.239631,-0.232321946 9.45966053,0.595825895 L9.37733333,0.688666667 Z M10.3832562,1.56747967 C10.5905858,1.27609756 11.1012516,1.25667209 11.4222451,1.50920325 L11.4879466,1.56747967 L20.7757515,11.2995622 C21.060072,11.6284821 21.1994449,12.1075264 21.0400479,12.5299967 L20.9978903,12.6263915 L11.2658078,32.9731082 C11.0567359,33.3912519 10.8476641,33.4158486 10.6736298,33.0468983 L10.6414175,32.9731082 L0.777252427,12.6263915 C0.569922846,12.2117323 0.671159452,11.6872445 0.939405328,11.3653296 L0.999391264,11.2995622 L10.3832562,1.56747967 Z" id="BORDER" fill="#FFFFFF"></path>
        </g>
    </g>
</svg>